<svg width="46" height="45" viewBox="0 0 46 45" fill="none" xmlns="http://www.w3.org/2000/svg">
<g clip-path="url(#clip0_9_716)">
<path d="M42.1527 11.3675L34.0312 2.93941C30.8418 1.07174 27.1296 0 23.1666 0C11.2742 0 1.63351 9.64072 1.63351 21.5331C1.63351 33.4255 11.2742 43.0662 23.1666 43.0662C35.059 43.0662 44.6997 33.4255 44.6997 21.5331C44.6997 17.8564 43.7773 14.3954 42.1527 11.3675Z" fill="#3B3868"/>
<path d="M16.8958 34.8164C17.5781 35.2103 18.4087 35.2386 19.1178 34.8923C19.1936 34.8553 19.2792 34.8577 19.3562 34.8955L34.3649 8.89972L32.4513 7.79493L16.8626 34.7954C16.8739 34.8021 16.8844 34.8098 16.8958 34.8164Z" fill="#FFB332"/>
<path d="M24.7501 25.0615C23.5577 25.2458 23.2726 24.4676 23.2046 24.0695C23.1952 24.0143 23.1729 23.9636 23.1416 23.9199L16.8626 34.7954C16.8738 34.8021 16.8844 34.8098 16.8958 34.8164C17.5781 35.2103 18.4087 35.2386 19.1178 34.8923C19.1936 34.8553 19.2792 34.8576 19.3562 34.8955L25.0025 25.1159C24.9298 25.0689 24.841 25.0474 24.7501 25.0615Z" fill="#FF9100"/>
<path d="M23.3052 37.3099C23.3599 38.0972 23.7997 38.8023 24.482 39.1962C24.4934 39.2028 24.5053 39.208 24.5168 39.2144L40.1055 12.2141L38.192 11.1093L23.1833 37.105C23.2545 37.1528 23.2994 37.2257 23.3052 37.3099Z" fill="#FFB332"/>
<path d="M30.5373 28.2605C29.5335 28.4539 29.1988 27.7888 29.0874 27.344C29.065 27.2544 29.0106 27.1825 28.9402 27.1339L23.1833 37.105C23.2545 37.1528 23.2994 37.2258 23.3053 37.31C23.36 38.0972 23.7998 38.8024 24.4821 39.1963C24.4935 39.2029 24.5054 39.2081 24.5169 39.2145L30.8111 28.3126C30.7329 28.2627 30.6359 28.2415 30.5373 28.2605Z" fill="#FF9100"/>
<path d="M19.3743 34.9033C19.4556 34.9502 19.5058 35.0293 19.5121 35.12C19.5667 35.9073 20.0066 36.6124 20.6888 37.0063C21.3711 37.4003 22.2017 37.4286 22.9108 37.0823C22.9925 37.0424 23.086 37.0463 23.1674 37.0933C23.1733 37.0967 23.1777 37.1014 23.1833 37.1051L38.1919 11.1093L34.3648 8.89972L19.3562 34.8955C19.3622 34.8984 19.3685 34.8999 19.3743 34.9033Z" fill="#FFDD40"/>
<path d="M28.6476 27.0773C26.1763 27.6465 25.3813 26.0304 25.1545 25.3149C25.1277 25.2301 25.0725 25.1612 25.0024 25.1158L19.3561 34.8954C19.3621 34.8984 19.3684 34.8999 19.3743 34.9032C19.4556 34.9501 19.5058 35.0292 19.5121 35.12C19.5667 35.9072 20.0066 36.6123 20.6889 37.0063C21.3712 37.4002 22.2018 37.4285 22.9109 37.0822C22.9926 37.0423 23.0861 37.0462 23.1675 37.0932C23.1734 37.0965 23.1778 37.1013 23.1833 37.105L28.9402 27.1339C28.8576 27.0772 28.7531 27.053 28.6476 27.0773Z" fill="#FFB332"/>
<path d="M16.1087 40.5389C16.8223 40.6891 17.5246 40.9511 18.1897 41.3351C18.8548 41.7191 19.4329 42.1963 19.9198 42.7393L23.6903 40.0271C24.0305 39.8428 24.313 39.5677 24.5064 39.2327L24.596 39.0776C24.5845 39.0712 24.5725 39.0663 24.561 39.0596C23.9002 38.6781 23.512 38.007 23.4628 37.2991C23.4529 37.1553 23.3723 37.0385 23.2624 36.9684C23.1412 36.8911 22.9843 36.8708 22.8417 36.9404C21.4338 37.6281 19.7784 36.6742 19.6698 35.1091C19.6588 34.9508 19.5628 34.8251 19.4353 34.7588C19.3196 34.6986 19.1782 34.6872 19.0486 34.7505C18.4111 35.0619 17.6357 35.0612 16.9749 34.6797C16.9634 34.6731 16.9532 34.6652 16.942 34.6583L16.8524 34.8135C16.659 35.1486 16.5621 35.5307 16.5725 35.9175L16.1087 40.5389Z" fill="#FCF9EB"/>
<path d="M18.9001 38.6988C19.3651 36.9732 20.3026 36.83 20.895 36.9369C20.2275 36.6068 19.7277 35.9453 19.6696 35.1091C19.6587 34.9507 19.5626 34.825 19.4352 34.7587C19.3194 34.6986 19.178 34.6871 19.0484 34.7504C18.411 35.0618 17.6355 35.0612 16.9747 34.6796C16.9632 34.6729 16.953 34.6651 16.9417 34.6583L16.8521 34.8135C16.6587 35.1486 16.5617 35.5307 16.5722 35.9175L16.1086 40.5389C16.8144 40.6876 17.509 40.9459 18.1676 41.323C18.356 40.6746 18.6037 39.7986 18.9001 38.6988Z" fill="#FCECA9"/>
<path d="M36.2184 15.2454C36.0964 15.2454 35.9728 15.2144 35.8596 15.149L32.0326 12.9394C31.6888 12.741 31.571 12.3013 31.7695 11.9575C31.968 11.6137 32.4077 11.4958 32.7514 11.6944L36.5785 13.9039C36.9223 14.1024 37.0401 14.542 36.8415 14.8859C36.7085 15.1165 36.4668 15.2454 36.2184 15.2454Z" fill="#FCECA9"/>
<path d="M20.8285 20.8219H5.38848C4.39813 20.8219 3.58795 21.6322 3.58795 22.6225V30.5866C3.58795 31.577 4.39822 32.3873 5.38848 32.3873H6.99116C7.16985 32.3873 7.33649 32.4773 7.43448 32.6267L8.53813 34.3096C8.80637 34.7186 9.40587 34.7186 9.67411 34.3096L10.7778 32.6267C10.8758 32.4773 11.0424 32.3873 11.2211 32.3873H20.8284C21.8188 32.3873 22.629 31.577 22.629 30.5866V22.6225C22.6291 21.6322 21.8188 20.8219 20.8285 20.8219Z" fill="#FF4155"/>
<path d="M5.38848 4.88355H20.8286C21.8189 4.88355 22.6292 5.69382 22.6292 6.68417V14.6483C22.6292 15.6386 21.8189 16.4489 20.8286 16.4489H19.2259C19.0472 16.4489 18.8806 16.5389 18.7826 16.6883L17.6789 18.3712C17.4107 18.7803 16.8112 18.7803 16.5429 18.3712L15.4393 16.6883C15.3413 16.5389 15.1747 16.4489 14.996 16.4489H5.38848C4.39812 16.4489 3.58786 15.6386 3.58786 14.6483V6.68408C3.58786 5.69382 4.39812 4.88355 5.38848 4.88355Z" fill="#42C3FC"/>
<path d="M10.5289 30.5866V22.6225C10.5289 21.6322 11.3392 20.8219 12.3295 20.8219H5.38848C4.39812 20.8219 3.58786 21.6322 3.58786 22.6225V30.5866C3.58786 31.577 4.39812 32.3873 5.38848 32.3873H6.99116C7.16984 32.3873 7.33648 32.4773 7.43448 32.6267L8.53812 34.3096C8.80637 34.7186 9.40596 34.7186 9.67411 34.3096L10.7778 32.6267C10.8758 32.4773 11.0424 32.3873 11.2211 32.3873H12.3294C11.3392 32.3872 10.5289 31.5769 10.5289 30.5866Z" fill="#E80054"/>
<path d="M10.5289 14.6482V6.68408C10.5289 5.69373 11.3392 4.88347 12.3295 4.88347H5.38848C4.39812 4.88347 3.58786 5.69373 3.58786 6.68408V14.6482C3.58786 15.6386 4.39812 16.4488 5.38848 16.4488H12.3295C11.3392 16.4488 10.5289 15.6386 10.5289 14.6482Z" fill="#1AA9E8"/>
<path d="M34.0312 2.93941C33.7118 3.04497 33.4281 3.26215 33.2466 3.57636C32.8544 4.25575 33.0871 5.12455 33.7666 5.51681L41.2473 9.83584C39.4164 7.01148 36.9418 4.64379 34.0312 2.93941Z" fill="#E9EFFF"/>
<path d="M35.906 6.24542C35.8677 5.55697 36.3621 5.21025 36.6744 5.06092C36.7466 5.02647 36.8086 4.97681 36.8582 4.91722C35.9721 4.18632 35.028 3.5231 34.0312 2.93941C33.7118 3.04488 33.428 3.26215 33.2466 3.57636C32.8544 4.25575 33.0871 5.12455 33.7666 5.51681L35.7463 6.65983C35.8537 6.55357 35.9149 6.40433 35.906 6.24542Z" fill="#D3DCFB"/>
<path d="M41.9933 11.7853C42.0704 11.6517 42.1225 11.5107 42.1527 11.3676C41.8344 10.7744 41.4889 10.1981 41.1183 9.63984L33.8191 5.42566C33.1398 5.03341 32.271 5.26614 31.8787 5.94562C31.4864 6.62502 31.7192 7.49382 32.3987 7.88607L40.0528 12.3052C40.7324 12.6975 41.6011 12.4646 41.9933 11.7853Z" fill="#D3DCFB"/>
<path d="M33.8192 5.42566C33.1398 5.03341 32.271 5.26623 31.8788 5.94562C31.4865 6.62502 31.7193 7.49382 32.3987 7.88607L34.1384 8.8904C34.1995 8.79126 34.2297 8.67287 34.2152 8.55C34.0837 7.43739 34.9677 6.9714 35.5365 6.78841C35.654 6.75061 35.7502 6.67494 35.8151 6.578L33.8192 5.42566Z" fill="#BEC8F7"/>
<path d="M18.2686 41.1985C17.5829 40.8026 16.8594 40.5334 16.1246 40.3799L15.7489 44.1243C15.6701 44.806 16.4435 45.2526 16.9946 44.8434L20.0495 42.6458C19.5491 42.0862 18.9542 41.5942 18.2686 41.1985Z" fill="#5F5F9B"/>
<path d="M17.7575 42.6899C17.7575 42.6899 17.9213 42.1762 18.2126 41.1676C17.5436 40.7892 16.8396 40.5292 16.1245 40.3798L15.7488 44.1242C15.67 44.8059 16.4434 45.2525 16.9944 44.8433L18.2128 43.9669C17.4826 43.6357 17.7575 42.6899 17.7575 42.6899Z" fill="#47477F"/>
<path d="M12.669 24.6292H6.97472C6.57772 24.6292 6.25586 24.3074 6.25586 23.9104C6.25586 23.5134 6.57772 23.1915 6.97472 23.1915H12.6691C13.0661 23.1915 13.3879 23.5134 13.3879 23.9104C13.3878 24.3075 13.066 24.6292 12.669 24.6292Z" fill="#FC95A9"/>
<path d="M19.2422 27.3234H6.97472C6.57772 27.3234 6.25586 27.0015 6.25586 26.6045C6.25586 26.2075 6.57772 25.8856 6.97472 25.8856H19.2423C19.6393 25.8856 19.9612 26.2075 19.9612 26.6045C19.9612 27.0015 19.6392 27.3234 19.2422 27.3234Z" fill="#FF7186"/>
<path d="M19.2422 30.0175H6.97472C6.57772 30.0175 6.25586 29.6956 6.25586 29.2986C6.25586 28.9016 6.57772 28.5797 6.97472 28.5797H19.2423C19.6393 28.5797 19.9612 28.9016 19.9612 29.2986C19.9612 29.6956 19.6392 30.0175 19.2422 30.0175Z" fill="#FF7186"/>
<path d="M19.2422 8.69089H13.5479C13.1509 8.69089 12.829 8.36903 12.829 7.97203C12.829 7.57503 13.1509 7.25317 13.5479 7.25317H19.2422C19.6392 7.25317 19.9611 7.57503 19.9611 7.97203C19.9611 8.36903 19.6392 8.69089 19.2422 8.69089Z" fill="#B8F0FF"/>
<path d="M19.2422 11.385H6.97472C6.57772 11.385 6.25586 11.0631 6.25586 10.6661C6.25586 10.2691 6.57772 9.94728 6.97472 9.94728H19.2423C19.6393 9.94728 19.9612 10.2691 19.9612 10.6661C19.9612 11.0631 19.6392 11.385 19.2422 11.385Z" fill="#8AE1FF"/>
<path d="M19.2422 14.0791H6.97472C6.57772 14.0791 6.25586 13.7573 6.25586 13.3603C6.25586 12.9633 6.57772 12.6414 6.97472 12.6414H19.2423C19.6393 12.6414 19.9612 12.9633 19.9612 13.3603C19.9611 13.7573 19.6392 14.0791 19.2422 14.0791Z" fill="#8AE1FF"/>
<path d="M40.1055 20.8219C37.7086 24.8683 30.0644 37.9063 30.0644 37.9063C30.0644 37.9063 28.9378 40.2864 30.7112 41.7061C38.8822 38.6488 44.6997 30.7709 44.6997 21.5332C44.6997 20.906 44.6722 20.2853 44.6197 19.6719C43.3906 18.8862 41.5529 18.3785 40.1055 20.8219Z" fill="#47477F"/>
</g>
<defs>
<clipPath id="clip0_9_716">
<rect width="45" height="45" fill="white" transform="translate(0.666626)"/>
</clipPath>
</defs>
</svg>
