<svg width="38" height="28" viewBox="0 0 38 28" fill="none" xmlns="http://www.w3.org/2000/svg">
<path d="M28.5 2.59995C28.5 1.55065 27.6493 0.699951 26.6 0.699951H1.9C0.850697 0.699951 0 1.55065 0 2.59995C0 3.64926 0.850697 4.49995 1.9 4.49995H26.6C27.6493 4.49995 28.5 3.64918 28.5 2.59995ZM1.9 12.1H36.1C37.1493 12.1 38 12.9507 38 14C38 15.0493 37.1493 15.9 36.1 15.9H1.9C0.850697 15.9 0 15.0493 0 14C0 12.9507 0.850697 12.1 1.9 12.1ZM1.9 23.5H19C20.0492 23.5 20.9 24.3506 20.9 25.4C20.9 26.4492 20.0492 27.3 19 27.3H1.9C0.850697 27.3 0 26.4492 0 25.4C0 24.3506 0.850697 23.5 1.9 23.5Z" fill="#21212C"/>
</svg>
