<svg width="60" height="60" viewBox="0 0 60 60" fill="none" xmlns="http://www.w3.org/2000/svg">
<g clip-path="url(#clip0_7_229)">
<path d="M43.5985 12.0154H42.0994V8.73969C44.1647 8.00987 45.4041 5.8973 45.0335 3.73805C44.6628 1.57825 42.7907 0 40.5996 0C38.4085 0 36.5365 1.57825 36.1658 3.73805C35.7952 5.8973 37.0346 8.00987 39.0999 8.73969V12.0154H21.1054V8.73969C23.1713 8.00987 24.4102 5.8973 24.0401 3.73805C23.6694 1.57825 21.7974 0 19.6063 0C17.4152 0 15.5426 1.57825 15.1725 3.73805C14.8018 5.8973 16.0407 8.00987 18.1066 8.73969V12.0154H16.6068C12.4679 12.0197 9.11371 15.3739 9.10931 19.5129V45.0049C9.11371 49.1443 12.4679 52.4985 16.6068 52.5029H21.1054V58.5007C21.106 59.046 21.402 59.5479 21.8786 59.8121C22.3553 60.0762 22.938 60.0608 23.3998 59.772L35.0318 52.5029H43.5985C47.738 52.4991 51.0928 49.1443 51.0966 45.0049V19.5129C51.0928 15.3739 47.738 12.0192 43.5985 12.0154ZM22.6052 21.0126C25.0884 21.0153 27.101 23.028 27.1038 25.5112C27.1038 26.3393 26.4327 27.0104 25.6041 27.0104C24.776 27.0104 24.1049 26.3393 24.1049 25.5112C24.1049 24.6831 23.4333 24.0115 22.6052 24.0115C21.7771 24.0115 21.1054 24.6831 21.1054 25.5112C21.1054 26.3393 20.4344 27.0104 19.6063 27.0104C18.7782 27.0104 18.1066 26.3393 18.1066 25.5112C18.1093 23.028 20.1219 21.0153 22.6052 21.0126ZM41.2702 39.5985C37.7803 41.2443 33.961 42.0741 30.1027 42.0235C26.2444 42.0741 22.4256 41.2448 18.9352 39.5985C18.1944 39.2284 17.8946 38.3272 18.2647 37.5864C18.6354 36.8456 19.536 36.5452 20.2768 36.9159C25.8781 39.7155 34.3289 39.7155 39.9291 36.9159C40.6699 36.5452 41.5705 36.8456 41.9412 37.5864C42.3113 38.3272 42.011 39.2284 41.2702 39.5985ZM40.5996 27.0104C40.2021 27.0109 39.8204 26.8528 39.5392 26.5716C39.2581 26.2904 39.0999 25.9088 39.0999 25.5112C39.0999 24.6831 38.4289 24.0115 37.6008 24.0115C36.7726 24.0115 36.101 24.6831 36.101 25.5112C36.101 26.3393 35.43 27.0104 34.6013 27.0104C33.7732 27.0104 33.1021 26.3393 33.1021 25.5112C33.1021 23.0263 35.1159 21.0126 37.6008 21.0126C40.0851 21.0126 42.0994 23.0263 42.0994 25.5112C42.0994 25.9088 41.9418 26.2904 41.6601 26.5716C41.3789 26.8528 40.9972 27.0109 40.5996 27.0104Z" fill="#F5F5F5"/>
<path d="M55.5952 24.0115H54.0955V39.0071H55.5952C58.0785 39.0043 60.0911 36.9917 60.0939 34.5084V28.5101C60.0911 26.0268 58.0785 24.0142 55.5952 24.0115Z" fill="#F5F5F5"/>
<path d="M0.112091 28.5101V34.5084C0.114837 36.9917 2.12746 39.0043 4.61071 39.0071H6.11043V24.0115H4.61071C2.12746 24.0142 0.114837 26.0268 0.112091 28.5101Z" fill="#F5F5F5"/>
</g>
<defs>
<clipPath id="clip0_7_229">
<rect width="60" height="60" fill="white"/>
</clipPath>
</defs>
</svg>
