<svg width="42" height="41" viewBox="0 0 42 41" fill="none" xmlns="http://www.w3.org/2000/svg">
<path d="M38.7448 4.32812H7.80725C7.06133 4.32813 6.34596 4.62444 5.81851 5.15189C5.29107 5.67933 4.99475 6.3947 4.99475 7.14062V9.95312H41.5573V7.14062C41.5573 6.3947 41.2609 5.67933 40.7335 5.15189C40.206 4.62444 39.4907 4.32813 38.7448 4.32812Z" fill="#FF5023"/>
<path d="M41.5573 9.95312V38.0781C41.5573 38.824 41.2609 39.5394 40.7335 40.0669C40.206 40.5943 39.4907 40.8906 38.7448 40.8906H7.80725C7.06133 40.8906 6.34596 40.5943 5.81851 40.0669C5.29107 39.5394 4.99475 38.824 4.99475 38.0781V9.95312H41.5573Z" fill="#5AAAE7"/>
<path d="M34.526 0.109375H3.5885C2.84258 0.109375 2.12721 0.405691 1.59976 0.933137C1.07232 1.46058 0.776001 2.17595 0.776001 2.92188V5.73438H37.3385V2.92188C37.3385 2.17595 37.0422 1.46058 36.5147 0.933137C35.9873 0.405691 35.2719 0.109375 34.526 0.109375Z" fill="#FF5023"/>
<path d="M38.7448 9.95312V35.2656C38.7448 36.0115 38.4484 36.7269 37.921 37.2544C37.3935 37.7818 36.6782 38.0781 35.9323 38.0781H4.99475V9.95312H38.7448Z" fill="#3D9AE2"/>
<path d="M37.3385 5.73438V33.8594C37.3385 34.6053 37.0422 35.3207 36.5147 35.8481C35.9873 36.3756 35.2719 36.6719 34.526 36.6719H3.5885C2.84258 36.6719 2.12721 36.3756 1.59976 35.8481C1.07232 35.3207 0.776001 34.6053 0.776001 33.8594V5.73438H37.3385Z" fill="#5AAAE7"/>
<path d="M35.9112 17.9477L26.4682 27.3977L25.3362 30.3297L23.9791 33.8594L27.5088 32.5023L30.4408 31.3703L37.3385 24.4783V16.5203L35.9112 17.9477Z" fill="#3D9AE2"/>
<path d="M38.8924 14.9664L38.7448 15.1141V23.0734L41.5573 20.2609V17.6312L38.8924 14.9664Z" fill="#3D9AE2"/>
<path d="M37.3385 16.5203V24.4783L38.7448 23.0734V15.1141L37.3385 16.5203Z" fill="#1E81CE"/>
<path d="M37.3385 19.375L36.4948 18.5312L27.0518 27.9812L29.0346 29.9641L37.3385 21.6672L38.4846 20.5211L37.3385 19.375Z" fill="#00B39D"/>
<path d="M37.4862 13.5602L37.3385 13.7078L34.5049 16.5414L36.4948 18.5312L37.3385 19.375L38.4846 20.5211L41.4658 17.5398L37.4862 13.5602Z" fill="#D1D3D4"/>
<path d="M36.4948 18.5312L27.0518 27.9812H27.0448L25.0619 25.9914L34.5049 16.5414L36.4948 18.5312Z" fill="#00CCB3"/>
<path d="M29.0346 29.9641L26.1026 31.0961L26.0533 30.9625L24.0635 28.9727L23.9299 28.9234L25.0619 25.9914L27.0448 27.9812H27.0518L29.0346 29.9641Z" fill="#D1D3D4"/>
<path d="M26.0533 30.9625L26.1026 31.0961L22.5729 32.4531L23.9299 28.9234L24.0635 28.9727L26.0533 30.9625Z" fill="#ACABB1"/>
<path d="M4.29163 9.95312H16.9479V16.9844H4.29163V9.95312Z" fill="#FFA733"/>
<path d="M37.3385 4.32812H38.7448V9.95312H37.3385V4.32812Z" fill="#ED1C24"/>
<path d="M4.29163 2.21875H5.69788V3.625H4.29163V2.21875Z" fill="#ED1C24"/>
<path d="M7.10413 2.21875H8.51038V3.625H7.10413V2.21875Z" fill="#ED1C24"/>
<path d="M9.91663 2.21875H11.3229V3.625H9.91663V2.21875Z" fill="#ED1C24"/>
<path d="M22.5729 9.95312H33.8229V11.3594H22.5729V9.95312Z" fill="#1E81CE"/>
<path d="M19.7604 12.7656H32.4166V14.1719H19.7604V12.7656Z" fill="#1E81CE"/>
<path d="M19.7604 15.5781H29.6041V16.9844H19.7604V15.5781Z" fill="#1E81CE"/>
<path d="M7.10413 20.5H25.3854V21.9062H7.10413V20.5Z" fill="#1E81CE"/>
<path d="M4.29163 23.3125H22.5729V24.7188H4.29163V23.3125Z" fill="#1E81CE"/>
<path d="M4.29163 26.125H19.7604V27.5312H4.29163V26.125Z" fill="#1E81CE"/>
<path d="M4.29163 28.9375H19.7604V30.3438H4.29163V28.9375Z" fill="#1E81CE"/>
<path d="M4.29163 31.75H19.7604V33.1562H4.29163V31.75Z" fill="#1E81CE"/>
<path d="M4.29163 20.5H5.69788V21.9062H4.29163V20.5Z" fill="#1E81CE"/>
<path d="M19.7604 9.95312H21.1666V11.3594H19.7604V9.95312Z" fill="#1E81CE"/>
</svg>
