<svg width="20" height="21" viewBox="0 0 20 21" fill="none" xmlns="http://www.w3.org/2000/svg">
<path d="M17.5 6.125H15.625V13C15.625 13.8288 15.2958 14.6237 14.7097 15.2097C14.1237 15.7958 13.3288 16.125 12.5 16.125H5.625V18C5.625 18.4973 5.82254 18.9742 6.17417 19.3258C6.52581 19.6775 7.00272 19.875 7.5 19.875H17.5C17.9973 19.875 18.4742 19.6775 18.8258 19.3258C19.1775 18.9742 19.375 18.4973 19.375 18V8C19.375 7.50272 19.1775 7.02581 18.8258 6.67417C18.4742 6.32254 17.9973 6.125 17.5 6.125Z" fill="#F5F5F5"/>
<path d="M12.5 1.125H2.5C1.46447 1.125 0.625 1.96447 0.625 3V13C0.625 14.0355 1.46447 14.875 2.5 14.875H12.5C13.5355 14.875 14.375 14.0355 14.375 13V3C14.375 1.96447 13.5355 1.125 12.5 1.125Z" fill="#F5F5F5"/>
</svg>
