<svg width="46" height="46" viewBox="0 0 46 46" fill="none" xmlns="http://www.w3.org/2000/svg">
<path d="M23 0.0833359C18.4675 0.0833359 14.0368 1.42737 10.2682 3.94549C6.49955 6.46361 3.56226 10.0427 1.82775 14.2302C0.0932425 18.4176 -0.360584 23.0254 0.523661 27.4708C1.40791 31.9162 3.59051 35.9996 6.79546 39.2045C10.0004 42.4095 14.0838 44.5921 18.5292 45.4763C22.9746 46.3606 27.5823 45.9067 31.7698 44.1722C35.9573 42.4377 39.5364 39.5004 42.0545 35.7318C44.5726 31.9632 45.9167 27.5325 45.9167 23C45.9095 16.9243 43.4928 11.0995 39.1966 6.80339C34.9004 2.50723 29.0757 0.0905035 23 0.0833359ZM33.4167 25.0833H25.0833V33.4167C25.0833 33.9692 24.8638 34.4991 24.4731 34.8898C24.0824 35.2805 23.5525 35.5 23 35.5C22.4475 35.5 21.9175 35.2805 21.5268 34.8898C21.1361 34.4991 20.9167 33.9692 20.9167 33.4167V25.0833H12.5833C12.0308 25.0833 11.5009 24.8638 11.1102 24.4731C10.7195 24.0824 10.5 23.5525 10.5 23C10.5 22.4475 10.7195 21.9176 11.1102 21.5269C11.5009 21.1362 12.0308 20.9167 12.5833 20.9167H20.9167V12.5833C20.9167 12.0308 21.1361 11.5009 21.5268 11.1102C21.9175 10.7195 22.4475 10.5 23 10.5C23.5525 10.5 24.0824 10.7195 24.4731 11.1102C24.8638 11.5009 25.0833 12.0308 25.0833 12.5833V20.9167H33.4167C33.9692 20.9167 34.4991 21.1362 34.8898 21.5269C35.2805 21.9176 35.5 22.4475 35.5 23C35.5 23.5525 35.2805 24.0824 34.8898 24.4731C34.4991 24.8638 33.9692 25.0833 33.4167 25.0833Z" fill="#DD6275"/>
</svg>
