<svg width="25" height="25" viewBox="0 0 25 25" fill="none" xmlns="http://www.w3.org/2000/svg">
<path fill-rule="evenodd" clip-rule="evenodd" d="M23.0988 6.97284L16.3663 1.40628C14.0984 -0.468759 10.9016 -0.468759 8.63379 1.40628L1.90121 6.97284C0.688238 7.97574 0 9.49632 0 11.0829V19.7636C0 22.5825 2.16769 25 5 25H7.5C8.88071 25 10 23.8808 10 22.5V18.4348C10 16.8504 11.1901 15.6984 12.5 15.6984C13.8099 15.6984 15 16.8504 15 18.4348V22.5C15 23.8808 16.1192 25 17.5 25H20C22.8324 25 25 22.5825 25 19.7636V11.0829C25 9.49633 24.3118 7.97574 23.0988 6.97284Z" fill="#DD6275"/>
</svg>
