<svg width="25" height="25" viewBox="0 0 25 25" fill="none" xmlns="http://www.w3.org/2000/svg">
<path d="M15.7949 7.32422C14.8052 7.32422 14 6.55757 14 5.61523V0H4.82051C3.26528 0 2 1.20474 2 2.68555V22.3145C2 23.7953 3.26528 25 4.82051 25H19.1795C20.7347 25 22 23.7953 22 22.3145V7.32422H15.7949ZM6.20513 17.5781H9.93436C10.3592 17.5781 10.7036 17.9061 10.7036 18.3105C10.7036 18.715 10.3592 19.043 9.93436 19.043H6.20513C5.78031 19.043 5.4359 18.715 5.4359 18.3105C5.4359 17.9061 5.78031 17.5781 6.20513 17.5781ZM5.4359 14.4043C5.4359 13.9998 5.78031 13.6719 6.20513 13.6719H17.4872C17.912 13.6719 18.2564 13.9998 18.2564 14.4043C18.2564 14.8088 17.912 15.1367 17.4872 15.1367H6.20513C5.78031 15.1367 5.4359 14.8088 5.4359 14.4043ZM17.4872 9.76562C17.912 9.76562 18.2564 10.0936 18.2564 10.498C18.2564 10.9025 17.912 11.2305 17.4872 11.2305H6.20513C5.78031 11.2305 5.4359 10.9025 5.4359 10.498C5.4359 10.0936 5.78031 9.76562 6.20513 9.76562H17.4872Z" fill="#21212C"/>
<path d="M16 5.73633C16 5.88172 16.1128 6 16.2514 6H22C21.862 5.73285 21.6845 5.48748 21.4712 5.27586L16.6224 0.465376C16.4342 0.278698 16.2246 0.122975 16.0001 0V5.73633H16Z" fill="#21212C"/>
</svg>
