<svg width="45" height="46" viewBox="0 0 45 46" fill="none" xmlns="http://www.w3.org/2000/svg">
<g clip-path="url(#clip0_9_621)">
<path d="M22.5 45.1427C34.6352 45.1427 44.4727 35.3052 44.4727 23.17C44.4727 11.0349 34.6352 1.19739 22.5 1.19739C10.3648 1.19739 0.527344 11.0349 0.527344 23.17C0.527344 35.3052 10.3648 45.1427 22.5 45.1427Z" fill="#1877F2"/>
<path opacity="0.49" d="M42.5117 32.2554C42.5656 32.0378 42.6558 31.8308 42.7785 31.6431C43.9002 28.9593 44.4761 26.0789 44.4726 23.17C44.4726 23.0128 44.47 22.8563 44.4667 22.6998L30.2353 8.46848C28.8767 8.32435 27.5112 8.25455 26.145 8.25939C22.0973 8.25939 19.3271 10.7291 19.3271 15.2668V19.1798H14.7646V24.4972L19.3271 29.0587V38.0807L26.0947 44.8483C29.654 44.2564 33.0131 42.7982 35.876 40.6022C38.7389 38.4061 41.0177 35.5397 42.5117 32.2554Z" fill="url(#paint0_linear_9_621)"/>
<path d="M24.8155 38.0807V24.4972H29.3946L30.0806 19.1798H24.8155V15.7935C24.8155 14.2576 25.2418 13.2111 27.4441 13.2111H30.2352V8.46839C28.8766 8.32435 27.5111 8.25458 26.1449 8.25939C22.0972 8.25939 19.327 10.7291 19.327 15.2668V19.1798H14.7646V24.4972H19.3271V38.0807H24.8155Z" fill="#F5F5F5"/>
</g>
<defs>
<linearGradient id="paint0_linear_9_621" x1="16.393" y1="14.8864" x2="49.7795" y2="48.2729" gradientUnits="userSpaceOnUse">
<stop stop-color="#1D1D1B"/>
<stop offset="0.369" stop-color="#1D1D1B" stop-opacity="0.856"/>
<stop offset="0.75" stop-color="#1D1D1B" stop-opacity="0.429"/>
<stop offset="1" stop-color="#1D1D1B" stop-opacity="0"/>
</linearGradient>
<clipPath id="clip0_9_621">
<rect width="45" height="45" fill="white" transform="translate(0 0.670044)"/>
</clipPath>
</defs>
</svg>
