<svg width="14" height="14" viewBox="0 0 14 14" fill="none" xmlns="http://www.w3.org/2000/svg">
<path d="M2.5 1.5H4.5H5.5L7 3L8 2L9 1.5H11L13 2.5L13.5 4.5L13 6.5L7.5 12L7 12.5L5.5 11L4 9.5L2 8L0.5 6V4L1.5 2L2.5 1.5Z" fill="#DD6275"/>
<path d="M12.8692 1.98857C12.1361 1.25548 11.1656 0.854805 10.1297 0.854805C9.09391 0.854805 8.12042 1.25845 7.38732 1.99154L7.00445 2.37441L6.61565 1.98561C5.88256 1.25251 4.90609 0.845901 3.87026 0.845901C2.83741 0.845901 1.86391 1.24955 1.13379 1.97967C0.400694 2.71276 -0.00295173 3.68626 1.62518e-05 4.72209C1.62518e-05 5.75791 0.40663 6.72844 1.13972 7.46153L6.71359 13.0354C6.79076 13.1126 6.89464 13.1541 6.99555 13.1541C7.09646 13.1541 7.20034 13.1155 7.27751 13.0384L12.8633 7.4734C13.5963 6.74031 14 5.76681 14 4.73099C14.003 3.69516 13.6023 2.72167 12.8692 1.98857ZM12.2993 6.90652L6.99555 12.1895L1.70364 6.89762C1.12191 6.31589 0.801371 5.54422 0.801371 4.72209C0.801371 3.89995 1.11895 3.12828 1.70067 2.54952C2.27943 1.97077 3.0511 1.65022 3.87026 1.65022C4.6924 1.65022 5.46704 1.97077 6.04876 2.55249L6.71953 3.22325C6.87683 3.38056 7.12911 3.38056 7.28641 3.22325L7.95124 2.55843C8.53296 1.9767 9.30761 1.65616 10.1268 1.65616C10.9459 1.65616 11.7176 1.9767 12.2993 2.55546C12.8811 3.13718 13.1986 3.90886 13.1986 4.73099C13.2016 5.55312 12.8811 6.3248 12.2993 6.90652Z" fill="#DD6275"/>
</svg>
