<svg width="17" height="16" viewBox="0 0 17 16" fill="none" xmlns="http://www.w3.org/2000/svg">
<path d="M3.52378 1.71429H5.8095H6.95235L8.66664 3.42857L9.8095 2.28572L10.9524 1.71429H13.2381L15.5238 2.85714L16.0952 5.14286L15.5238 7.42857L9.23807 13.7143L8.66664 14.2857L6.95235 12.5714L5.23807 10.8571L2.95235 9.14286L1.23807 6.85714V4.57143L2.38092 2.28572L3.52378 1.71429Z" fill="#F5F5F5"/>
<path d="M15.3743 2.27266C14.5364 1.43484 13.4273 0.976921 12.2435 0.976921C11.0597 0.976921 9.9471 1.43823 9.10928 2.27605L8.67172 2.71361L8.22737 2.26927C7.38955 1.43145 6.27359 0.966745 5.08979 0.966745C3.90938 0.966745 2.79681 1.42805 1.96238 2.26248C1.12456 3.1003 0.663253 4.21287 0.666645 5.39667C0.666645 6.58047 1.13135 7.68965 1.96916 8.52747L8.3393 14.8976C8.42749 14.9858 8.54621 15.0333 8.66154 15.0333C8.77687 15.0333 8.89559 14.9892 8.98378 14.901L15.3675 8.54103C16.2053 7.70322 16.6666 6.59065 16.6666 5.40685C16.67 4.22305 16.2121 3.11048 15.3743 2.27266ZM14.723 7.89317L8.66154 13.9309L2.61364 7.88299C1.94881 7.21816 1.58248 6.33625 1.58248 5.39667C1.58248 4.45709 1.94542 3.57518 2.61025 2.91374C3.27168 2.25231 4.1536 1.88597 5.08979 1.88597C6.02936 1.88597 6.91467 2.25231 7.5795 2.91713L8.34609 3.68372C8.52586 3.8635 8.81418 3.8635 8.99395 3.68372L9.75376 2.92392C10.4186 2.25909 11.3039 1.89276 12.2401 1.89276C13.1763 1.89276 14.0582 2.25909 14.723 2.92053C15.3878 3.58535 15.7508 4.46727 15.7508 5.40685C15.7542 6.34642 15.3878 7.22834 14.723 7.89317Z" fill="#F5F5F5"/>
</svg>
