<svg width="17" height="16" viewBox="0 0 17 16" fill="none" xmlns="http://www.w3.org/2000/svg">
<path d="M15.3743 2.27266C14.5365 1.43484 13.4273 0.976923 12.2435 0.976923C11.0597 0.976923 9.94712 1.43823 9.1093 2.27605L8.67173 2.71362L8.22738 2.26927C7.38956 1.43145 6.2736 0.966747 5.0898 0.966747C3.90939 0.966747 2.79682 1.42806 1.9624 2.26248C1.12458 3.1003 0.663268 4.21287 0.66666 5.39667C0.66666 6.58047 1.13136 7.68965 1.96918 8.52747L8.33932 14.8976C8.42751 14.9858 8.54623 15.0333 8.66156 15.0333C8.77688 15.0333 8.8956 14.9892 8.98379 14.901L15.3675 8.54104C16.2053 7.70322 16.6666 6.59065 16.6666 5.40685C16.67 4.22305 16.2121 3.11048 15.3743 2.27266ZM14.723 7.89317L8.66156 13.9309L2.61366 7.88299C1.94883 7.21816 1.58249 6.33625 1.58249 5.39667C1.58249 4.45709 1.94544 3.57518 2.61026 2.91374C3.2717 2.25231 4.15361 1.88597 5.0898 1.88597C6.02938 1.88597 6.91469 2.25231 7.57951 2.91714L8.3461 3.68372C8.52588 3.8635 8.81419 3.8635 8.99397 3.68372L9.75377 2.92392C10.4186 2.25909 11.3039 1.89276 12.2401 1.89276C13.1763 1.89276 14.0582 2.25909 14.723 2.92053C15.3879 3.58536 15.7508 4.46727 15.7508 5.40685C15.7542 6.34643 15.3879 7.22834 14.723 7.89317Z" fill="#21212C"/>
</svg>
