<svg width="45" height="46" viewBox="0 0 45 46" fill="none" xmlns="http://www.w3.org/2000/svg">
<path d="M31.5943 0.670044H13.4057C6.01379 0.670044 0 6.68383 0 14.0758V32.2643C0 39.6563 6.01379 45.67 13.4057 45.67H31.5943C38.9862 45.67 45 39.6563 45 32.2643V14.0758C44.9999 6.68383 38.9861 0.670044 31.5943 0.670044ZM40.473 32.2643C40.473 37.1679 36.4978 41.143 31.5943 41.143H13.4057C8.50219 41.143 4.527 37.1679 4.527 32.2643V14.0758C4.527 9.17215 8.50219 5.19704 13.4057 5.19704H31.5943C36.4978 5.19704 40.473 9.17215 40.473 14.0758V32.2643Z" fill="url(#paint0_linear_9_545)"/>
<path d="M22.5 11.5314C16.0825 11.5314 10.8614 16.7525 10.8614 23.17C10.8614 29.5874 16.0825 34.8086 22.5 34.8086C28.9175 34.8086 34.1386 29.5875 34.1386 23.17C34.1386 16.7524 28.9175 11.5314 22.5 11.5314ZM22.5 30.2816C18.5723 30.2816 15.3884 27.0977 15.3884 23.17C15.3884 19.2424 18.5724 16.0584 22.5 16.0584C26.4277 16.0584 29.6116 19.2424 29.6116 23.17C29.6116 27.0976 26.4276 30.2816 22.5 30.2816Z" fill="url(#paint1_linear_9_545)"/>
<path d="M34.1611 14.4077C35.7014 14.4077 36.95 13.1591 36.95 11.6188C36.95 10.0786 35.7014 8.82999 34.1611 8.82999C32.6209 8.82999 31.3723 10.0786 31.3723 11.6188C31.3723 13.1591 32.6209 14.4077 34.1611 14.4077Z" fill="url(#paint2_linear_9_545)"/>
<defs>
<linearGradient id="paint0_linear_9_545" x1="22.5" y1="45.5391" x2="22.5" y2="1.01957" gradientUnits="userSpaceOnUse">
<stop stop-color="#E09B3D"/>
<stop offset="0.3" stop-color="#C74C4D"/>
<stop offset="0.6" stop-color="#C21975"/>
<stop offset="1" stop-color="#7024C4"/>
</linearGradient>
<linearGradient id="paint1_linear_9_545" x1="22.5" y1="45.539" x2="22.5" y2="1.01956" gradientUnits="userSpaceOnUse">
<stop stop-color="#E09B3D"/>
<stop offset="0.3" stop-color="#C74C4D"/>
<stop offset="0.6" stop-color="#C21975"/>
<stop offset="1" stop-color="#7024C4"/>
</linearGradient>
<linearGradient id="paint2_linear_9_545" x1="34.1611" y1="45.5391" x2="34.1611" y2="1.01958" gradientUnits="userSpaceOnUse">
<stop stop-color="#E09B3D"/>
<stop offset="0.3" stop-color="#C74C4D"/>
<stop offset="0.6" stop-color="#C21975"/>
<stop offset="1" stop-color="#7024C4"/>
</linearGradient>
</defs>
</svg>
