<svg width="16" height="14" viewBox="0 0 16 14" fill="none" xmlns="http://www.w3.org/2000/svg">
<path d="M14.8465 2.08067C14.2074 2.08067 13.6897 2.64436 13.6897 3.33778C13.6897 3.78887 13.908 4.18157 14.2369 4.40472C13.542 5.44763 12.5616 6.65876 11.551 7.00961C10.2211 7.47167 8.98113 4.63198 8.37074 2.94438C8.82319 2.77409 9.15275 2.30929 9.15275 1.75798C9.15275 1.06456 8.63575 0.501534 7.99863 0.501534C7.36285 0.501534 6.84518 1.06453 6.84518 1.75798C6.84518 2.30929 7.17404 2.77342 7.62719 2.94438C7.0182 4.63198 5.77961 7.47167 4.44766 7.00961C3.43839 6.65876 2.45589 5.44763 1.76247 4.40472C2.08996 4.1816 2.30897 3.78957 2.30897 3.33778C2.30897 2.64436 1.7906 2.08067 1.15345 2.08067C0.517667 2.08067 0 2.64436 0 3.33778C0 4.03328 0.517667 4.59627 1.15345 4.59627C1.1665 4.59627 1.17541 4.59283 1.1878 4.59147L2.74633 11.8314H13.253L14.8122 4.59147C14.8232 4.59217 14.8342 4.59627 14.8472 4.59627C15.4823 4.59627 16 4.03328 16 3.33778C15.9993 2.64436 15.4816 2.08067 14.8465 2.08067Z" fill="url(#paint0_linear_9_770)"/>
<path d="M13.1994 12.0862H2.79919V13.4984H13.1994V12.0862Z" fill="url(#paint1_linear_9_770)"/>
<defs>
<linearGradient id="paint0_linear_9_770" x1="8" y1="0.501534" x2="8" y2="11.8314" gradientUnits="userSpaceOnUse">
<stop stop-color="#EEB601"/>
<stop offset="1" stop-color="#EE5A01"/>
</linearGradient>
<linearGradient id="paint1_linear_9_770" x1="7.99932" y1="12.0862" x2="7.99932" y2="13.4984" gradientUnits="userSpaceOnUse">
<stop stop-color="#EEB601"/>
<stop offset="1" stop-color="#EE5A01"/>
</linearGradient>
</defs>
</svg>
