<svg width="45" height="46" viewBox="0 0 45 46" fill="none" xmlns="http://www.w3.org/2000/svg">
<g clip-path="url(#clip0_9_754)">
<path d="M45 23.17C45 35.5966 34.9266 45.67 22.5 45.67C10.0734 45.67 0 35.5966 0 23.17C0 10.7435 10.0734 0.670044 22.5 0.670044C34.9266 0.670044 45 10.7435 45 23.17Z" fill="#009AE5"/>
<path d="M44.4768 28.0085L34.506 18.0974C34.1932 17.7551 33.8252 17.4561 33.4036 17.2041C32.6795 16.7722 31.7141 16.5535 30.5341 16.5535C28.949 16.5535 27.5269 16.8508 26.3074 17.4379C25.8913 17.6381 25.5058 17.8688 25.1515 18.1283L23.6869 16.8955H21.8872L15.1423 10.154C14.5521 9.5027 13.7003 9.09277 12.7541 9.09277H12.7174C10.9389 9.09277 9.49219 10.5395 9.49219 12.3179C9.49219 13.1763 9.82967 13.957 10.3786 14.5351L12.7376 16.8951H9.87259V35.1022L20.3364 45.566C21.0484 45.634 21.7701 45.67 22.5 45.67C33.2652 45.67 42.263 38.109 44.4768 28.0085Z" fill="#0070B4"/>
<path d="M12.7541 9.09277H12.7174C10.9389 9.09277 9.49219 10.5395 9.49219 12.3179C9.49219 14.0964 10.9389 15.5431 12.7174 15.5431H12.7541C14.5325 15.5431 15.9793 14.0964 15.9793 12.3179C15.9793 10.5395 14.5325 9.09277 12.7541 9.09277Z" fill="#F5F5F5"/>
<path d="M9.87225 16.8951H15.5989V35.1019H9.87225V16.8951Z" fill="#F5F5F5"/>
<path d="M35.8748 21.1407C35.7475 20.3308 35.4834 19.5741 35.0897 18.8912C34.6928 18.2029 34.1253 17.6353 33.4036 17.2041C32.6795 16.7722 31.7141 16.5535 30.5341 16.5535C28.949 16.5535 27.5269 16.8508 26.3075 17.4379C25.2202 17.9608 24.3402 18.69 23.6869 19.6081V16.8951H18.5075V35.1022H24.2338V24.704C24.3876 24.2704 24.6035 23.8629 24.8758 23.4928C25.1518 23.1172 25.4715 22.7862 25.8261 22.5091C26.1794 22.2328 26.5488 22.0144 26.9244 21.8599C27.2952 21.7075 27.6698 21.6299 28.0381 21.6299C28.7337 21.6299 29.2775 21.8778 29.7009 22.3873C30.1235 22.8974 30.3381 23.7386 30.3381 24.8873V35.1022H36.0643V23.4856C36.0643 22.7333 36.0008 21.9444 35.8748 21.1407Z" fill="#F5F5F5"/>
<path d="M36.064 23.4856V35.1022H30.3381V24.8873C30.3381 23.7386 30.1235 22.8974 29.7009 22.388C29.2772 21.8781 28.7334 21.6302 28.0381 21.6302C27.6698 21.6302 27.2952 21.7075 26.9244 21.8596C26.5491 22.0144 26.179 22.2331 25.8258 22.5091C25.4715 22.7859 25.1518 23.1172 24.8758 23.4928C24.6032 23.8625 24.3879 24.2704 24.2341 24.7037V35.1022H22.5V16.8955H23.6865V19.6077C24.3406 18.6904 25.2201 17.9608 26.3074 17.4379C27.5266 16.8508 28.9486 16.5535 30.5341 16.5535C31.7144 16.5535 32.6795 16.7726 33.4036 17.2041C34.1253 17.6357 34.6931 18.2032 35.0893 18.8916C35.4831 19.5744 35.7478 20.3311 35.8752 21.1407C36.0008 21.944 36.064 22.7333 36.064 23.4856Z" fill="#FFF5CB"/>
</g>
<defs>
<clipPath id="clip0_9_754">
<rect width="45" height="45" fill="white" transform="translate(0 0.670044)"/>
</clipPath>
</defs>
</svg>
