<svg width="25" height="25" viewBox="0 0 25 25" fill="none" xmlns="http://www.w3.org/2000/svg">
<g clip-path="url(#clip0_6_48)">
<path d="M13.5416 1.04167V9.375C13.5416 9.65127 13.4319 9.91622 13.2365 10.1116C13.0412 10.3069 12.7762 10.4167 12.5 10.4167C12.2237 10.4167 11.9588 10.3069 11.7634 10.1116C11.5681 9.91622 11.4583 9.65127 11.4583 9.375V1.04167C11.4583 0.7654 11.5681 0.500448 11.7634 0.305097C11.9588 0.109747 12.2237 0 12.5 0C12.7762 0 13.0412 0.109747 13.2365 0.305097C13.4319 0.500448 13.5416 0.7654 13.5416 1.04167Z" fill="#21212C"/>
<path d="M13.5416 1.04167V9.375C13.5416 9.65127 13.4319 9.91622 13.2365 10.1116C13.0412 10.3069 12.7762 10.4167 12.5 10.4167C12.2237 10.4167 11.9588 10.3069 11.7634 10.1116C11.5681 9.91622 11.4583 9.65127 11.4583 9.375V1.04167C11.4583 0.7654 11.5681 0.500448 11.7634 0.305097C11.9588 0.109747 12.2237 0 12.5 0C12.7762 0 13.0412 0.109747 13.2365 0.305097C13.4319 0.500448 13.5416 0.7654 13.5416 1.04167Z" fill="#21212C"/>
<path d="M23.9584 13.5416C23.9589 15.6734 23.3648 17.7631 22.2428 19.5757C21.1208 21.3883 19.5154 22.8519 17.6071 23.8021C15.6987 24.7522 13.5632 25.1511 11.4406 24.954C9.31794 24.7569 7.29237 23.9716 5.59164 22.6863C3.8909 21.401 2.58243 19.6668 1.81336 17.6786C1.04428 15.6904 0.845089 13.5271 1.23819 11.4319C1.63128 9.33666 2.60108 7.39265 4.03852 5.81843C5.47597 4.24421 7.32407 3.1022 9.37502 2.52081V9.37498C9.37502 10.2038 9.70426 10.9986 10.2903 11.5847C10.8764 12.1707 11.6712 12.5 12.5 12.5C13.3288 12.5 14.1237 12.1707 14.7097 11.5847C15.2958 10.9986 15.625 10.2038 15.625 9.37498V2.52081C18.0236 3.20163 20.1348 4.64591 21.6386 6.63469C23.1424 8.62347 23.9568 11.0483 23.9584 13.5416Z" fill="#21212C"/>
</g>
<defs>
<clipPath id="clip0_6_48">
<rect width="25" height="25" fill="white"/>
</clipPath>
</defs>
</svg>
