<svg width="20" height="19" viewBox="0 0 20 19" fill="none" xmlns="http://www.w3.org/2000/svg">
<path d="M10 0.333374C8.18702 0.333374 6.41474 0.87099 4.90729 1.87824C3.39984 2.88548 2.22492 4.31712 1.53112 5.99211C0.837315 7.6671 0.655785 9.51021 1.00948 11.2884C1.36318 13.0665 2.23622 14.6999 3.5182 15.9819C4.80018 17.2638 6.43353 18.1369 8.21169 18.4906C9.98984 18.8443 11.833 18.6627 13.5079 17.9689C15.1829 17.2751 16.6146 16.1002 17.6218 14.5928C18.6291 13.0853 19.1667 11.313 19.1667 9.50004C19.1638 7.06977 18.1971 4.73986 16.4787 3.0214C14.7602 1.30293 12.4303 0.336241 10 0.333374ZM14.1667 10.3334H10.8333V13.6667C10.8333 13.8877 10.7455 14.0997 10.5893 14.256C10.433 14.4122 10.221 14.5 10 14.5C9.779 14.5 9.56704 14.4122 9.41076 14.256C9.25448 14.0997 9.16668 13.8877 9.16668 13.6667V10.3334H5.83335C5.61233 10.3334 5.40037 10.2456 5.24409 10.0893C5.08781 9.93302 5.00001 9.72105 5.00001 9.50004C5.00001 9.27903 5.08781 9.06707 5.24409 8.91078C5.40037 8.75451 5.61233 8.66671 5.83335 8.66671H9.16668V5.33337C9.16668 5.11236 9.25448 4.9004 9.41076 4.74412C9.56704 4.58784 9.779 4.50004 10 4.50004C10.221 4.50004 10.433 4.58784 10.5893 4.74412C10.7455 4.9004 10.8333 5.11236 10.8333 5.33337V8.66671H14.1667C14.3877 8.66671 14.5997 8.75451 14.7559 8.91078C14.9122 9.06707 15 9.27903 15 9.50004C15 9.72105 14.9122 9.93302 14.7559 10.0893C14.5997 10.2456 14.3877 10.3334 14.1667 10.3334Z" fill="#f5f5f5"/>
</svg>
