<svg width="23" height="23" viewBox="0 0 23 23" fill="none" xmlns="http://www.w3.org/2000/svg">
<path d="M11.5 0.0416565C9.23378 0.0416565 7.01843 0.713676 5.13412 1.97273C3.2498 3.23179 1.78116 5.02134 0.913906 7.11508C0.0466518 9.20881 -0.180261 11.5127 0.261861 13.7354C0.703983 15.9581 1.79528 17.9998 3.39776 19.6023C5.00024 21.2047 7.04192 22.296 9.26461 22.7382C11.4873 23.1803 13.7912 22.9534 15.8849 22.0861C17.9787 21.2189 19.7682 19.7502 21.0273 17.8659C22.2863 15.9816 22.9584 13.7662 22.9584 11.5C22.9548 8.46215 21.7464 5.54976 19.5983 3.40168C17.4503 1.25361 14.5379 0.0452403 11.5 0.0416565ZM16.7084 12.5417H12.5417V16.7083C12.5417 16.9846 12.4319 17.2495 12.2366 17.4449C12.0412 17.6402 11.7763 17.75 11.5 17.75C11.2238 17.75 10.9588 17.6402 10.7635 17.4449C10.5681 17.2495 10.4584 16.9846 10.4584 16.7083V12.5417H6.29169C6.01542 12.5417 5.75047 12.4319 5.55512 12.2366C5.35977 12.0412 5.25002 11.7763 5.25002 11.5C5.25002 11.2237 5.35977 10.9588 5.55512 10.7634C5.75047 10.5681 6.01542 10.4583 6.29169 10.4583H10.4584V6.29166C10.4584 6.01539 10.5681 5.75044 10.7635 5.55509C10.9588 5.35974 11.2238 5.24999 11.5 5.24999C11.7763 5.24999 12.0412 5.35974 12.2366 5.55509C12.4319 5.75044 12.5417 6.01539 12.5417 6.29166V10.4583H16.7084C16.9846 10.4583 17.2496 10.5681 17.4449 10.7634C17.6403 10.9588 17.75 11.2237 17.75 11.5C17.75 11.7763 17.6403 12.0412 17.4449 12.2366C17.2496 12.4319 16.9846 12.5417 16.7084 12.5417Z" fill="#F5F5F5"/>
</svg>
