<svg width="20" height="21" viewBox="0 0 20 21" fill="none" xmlns="http://www.w3.org/2000/svg">
<path d="M10 0.5C4.48578 0.5 0 4.98578 0 10.5C0 16.0142 4.48578 20.5 10 20.5C15.5142 20.5 20 16.0142 20 10.5C20 4.98578 15.5142 0.5 10 0.5ZM13.6826 13.0041C14.0083 13.33 14.0083 13.8566 13.6826 14.1826C13.5201 14.3451 13.3067 14.4267 13.0933 14.4267C12.8799 14.4267 12.6666 14.3451 12.5041 14.1826L10 11.6783L7.49588 14.1826C7.33337 14.3451 7.12006 14.4267 6.90674 14.4267C6.69327 14.4267 6.47995 14.3451 6.31744 14.1826C5.99167 13.8566 5.99167 13.33 6.31744 13.0041L8.82172 10.5L6.31744 7.99588C5.99167 7.66995 5.99167 7.14337 6.31744 6.81744C6.64337 6.49167 7.16995 6.49167 7.49588 6.81744L10 9.32172L12.5041 6.81744C12.83 6.49167 13.3566 6.49167 13.6826 6.81744C14.0083 7.14337 14.0083 7.66995 13.6826 7.99588L11.1783 10.5L13.6826 13.0041Z" fill="#f5f5f5"/>
</svg>
