<svg width="20" height="19" viewBox="0 0 20 19" fill="none" xmlns="http://www.w3.org/2000/svg">
<path d="M3.57144 1.64282H6.42858H7.85715L10 3.78568L11.4286 2.35711L12.8572 1.64282H15.7143L18.5714 3.07139L19.2857 5.92854L18.5714 8.78568L10.7143 16.6428L10 17.3571L7.85715 15.2142L5.71429 13.0714L2.85715 10.9285L0.714294 8.07139V5.21425L2.14287 2.35711L3.57144 1.64282Z" fill="#21212C"/>
<path d="M18.3846 2.34076C17.3373 1.29349 15.9508 0.721094 14.4711 0.721094C12.9913 0.721094 11.6006 1.29773 10.5533 2.345L10.0064 2.89196L9.45093 2.33652C8.40365 1.28925 7.0087 0.708374 5.52895 0.708374C4.05344 0.708374 2.66273 1.28501 1.61969 2.32804C0.57242 3.37532 -0.00421676 4.76603 2.32169e-05 6.24578C2.32169e-05 7.72553 0.5809 9.112 1.62817 10.1593L9.59085 18.1219C9.70108 18.2322 9.84948 18.2915 9.99364 18.2915C10.1378 18.2915 10.2862 18.2364 10.3964 18.1262L18.3761 10.1762C19.4233 9.12896 20 7.73825 20 6.2585C20.0042 4.77875 19.4318 3.38804 18.3846 2.34076ZM17.5705 9.3664L9.99364 16.9136L2.43377 9.35368C1.60273 8.52265 1.14482 7.42025 1.14482 6.24578C1.14482 5.07131 1.59849 3.96891 2.42953 3.14212C3.25632 2.31532 4.35872 1.85741 5.52895 1.85741C6.70342 1.85741 7.81006 2.31532 8.64109 3.14636L9.59932 4.10459C9.82404 4.32931 10.1844 4.32931 10.4092 4.10459L11.3589 3.15484C12.1899 2.3238 13.2966 1.86589 14.4668 1.86589C15.637 1.86589 16.7394 2.3238 17.5705 3.1506C18.4015 3.98163 18.8552 5.08403 18.8552 6.2585C18.8594 7.43297 18.4015 8.53537 17.5705 9.3664Z" fill="#21212C"/>
</svg>
