<svg width="20" height="19" viewBox="0 0 20 19" fill="none" xmlns="http://www.w3.org/2000/svg">
<path d="M3.57144 1.64282H6.42858H7.85715L10 3.78568L11.4286 2.35711L12.8572 1.64282H15.7143L18.5714 3.07139L19.2857 5.92854L18.5714 8.78568L10.7143 16.6428L10 17.3571L7.85715 15.2142L5.71429 13.0714L2.85715 10.9285L0.714294 8.07139V5.21425L2.14287 2.35711L3.57144 1.64282Z" fill="#F5F5F5"/>
<path d="M18.3846 2.34089C17.3373 1.29361 15.9508 0.721216 14.4711 0.721216C12.9913 0.721216 11.6006 1.29785 10.5533 2.34513L10.0064 2.89208L9.45093 2.33665C8.40365 1.28937 7.0087 0.708496 5.52895 0.708496C4.05344 0.708496 2.66273 1.28513 1.61969 2.32817C0.57242 3.37544 -0.00421676 4.76615 2.32169e-05 6.2459C2.32169e-05 7.72565 0.5809 9.11212 1.62817 10.1594L9.59085 18.1221C9.70108 18.2323 9.84948 18.2917 9.99364 18.2917C10.1378 18.2917 10.2862 18.2365 10.3964 18.1263L18.3761 10.1764C19.4233 9.12908 20 7.73837 20 6.25862C20.0042 4.77887 19.4318 3.38816 18.3846 2.34089ZM17.5705 9.36652L9.99364 16.9137L2.43377 9.3538C1.60273 8.52277 1.14482 7.42038 1.14482 6.2459C1.14482 5.07143 1.59849 3.96904 2.42953 3.14224C3.25632 2.31545 4.35872 1.85753 5.52895 1.85753C6.70342 1.85753 7.81006 2.31545 8.64109 3.14648L9.59932 4.10472C9.82404 4.32943 10.1844 4.32943 10.4092 4.10472L11.3589 3.15496C12.1899 2.32393 13.2966 1.86601 14.4668 1.86601C15.637 1.86601 16.7394 2.32393 17.5705 3.15072C18.4015 3.98176 18.8552 5.08415 18.8552 6.25862C18.8594 7.43309 18.4015 8.53549 17.5705 9.36652Z" fill="#F5F5F5"/>
</svg>
