<svg width="23" height="25" viewBox="0 0 23 25" fill="none" xmlns="http://www.w3.org/2000/svg">
<path d="M21.675 14.3179L21.2107 14.0464C20.6581 13.7241 20.328 13.1455 20.328 12.5C20.328 11.8545 20.6581 11.2759 21.2107 10.9536L21.675 10.6821C22.9427 9.94107 23.3761 8.30536 22.6443 7.02321L21.7615 5.47679C21.0315 4.19732 19.4081 3.75804 18.144 4.49643L17.6797 4.76696C17.1271 5.09018 16.4659 5.09018 15.9142 4.76696C15.3616 4.44375 15.0314 3.86607 15.0314 3.22054V2.67857C15.0314 1.20179 13.8433 0 12.3832 0H10.6177C9.15762 0 7.96943 1.20179 7.96943 2.67857V3.22143C7.96943 3.86696 7.63928 4.44464 7.08668 4.76786C6.53408 5.09018 5.87378 5.09107 5.32118 4.76786L4.85685 4.49643C3.59275 3.75804 1.96937 4.19732 1.23845 5.47679L0.355699 7.02321C-0.376102 8.30536 0.057329 9.94196 1.32496 10.6821L1.79017 10.9536C2.34277 11.2759 2.67292 11.8545 2.67292 12.5C2.67292 13.1455 2.34277 13.7241 1.79017 14.0464L1.32584 14.3179C0.0582117 15.058 -0.375219 16.6946 0.356582 17.9768L1.23933 19.5232C1.97025 20.8027 3.59363 21.242 4.85685 20.5036L5.32118 20.233C5.87378 19.9089 6.53408 19.9107 7.08668 20.233C7.63928 20.5562 7.96943 21.1339 7.96943 21.7795V22.3214C7.96943 23.7982 9.15762 25 10.6177 25H12.3832C13.8433 25 15.0314 23.7982 15.0314 22.3214V21.7786C15.0314 21.133 15.3616 20.5554 15.9142 20.2321C16.4659 19.9098 17.1271 19.9089 17.6797 20.2321L18.144 20.5036C19.4081 21.2411 21.0315 20.8018 21.7615 19.5232L22.6443 17.9768C23.3761 16.6946 22.9427 15.058 21.675 14.3179ZM11.5004 16.9643C9.06669 16.9643 7.08668 14.9616 7.08668 12.5C7.08668 10.0384 9.06669 8.03571 11.5004 8.03571C13.9342 8.03571 15.9142 10.0384 15.9142 12.5C15.9142 14.9616 13.9342 16.9643 11.5004 16.9643Z" fill="#21212C"/>
</svg>
