<svg width="19" height="25" viewBox="0 0 19 25" fill="none" xmlns="http://www.w3.org/2000/svg">
<path d="M18.8506 20.3065C18.3005 18.6694 16.108 17.6446 14.5448 16.9576C13.9325 16.6894 12.2371 16.2343 12.0334 15.4633C11.9604 15.1855 11.9703 14.9236 12.0301 14.6725C11.9358 14.6906 11.8402 14.7012 11.7414 14.7012H10.7228C9.90971 14.7012 9.24899 14.0397 9.24899 13.2271C9.24899 12.4151 9.90998 11.7549 10.7228 11.7549H11.7414C12.0779 11.7549 12.3969 11.8688 12.6542 12.072C13.0314 12.0217 13.3952 11.9412 13.7344 11.8355C14.1799 10.9022 14.5274 9.78612 14.6052 8.8255C14.9376 4.71533 12.4179 2.31063 8.80514 2.72634C6.17838 3.02871 4.60921 4.98737 4.43959 7.50898C4.26806 10.0792 5.22104 11.9775 6.23328 13.37C6.67658 13.9788 7.14228 14.3702 7.07072 15.1038C6.98769 15.9713 6.06011 16.213 5.39666 16.4796C4.61057 16.7954 3.76385 17.2745 3.36398 17.496C1.98654 18.2567 0.47473 19.1728 0.134947 20.4259C-0.617546 23.2032 1.92372 24.0444 4.02169 24.4328C5.82221 24.765 7.85244 24.7912 9.5224 24.7912C12.543 24.7912 17.9746 24.6702 18.8506 22.3996C19.0997 21.7553 18.9929 20.7285 18.8506 20.3065Z" fill="#21212C"/>
<path d="M12.386 12.8122C12.2478 12.6016 12.0115 12.4618 11.7419 12.4618H10.7234C10.2984 12.4618 9.95558 12.8051 9.95558 13.2279C9.95558 13.6524 10.2984 13.9963 10.7234 13.9963H11.7419C12.0393 13.9963 12.2917 13.8266 12.419 13.5814C13.839 13.4696 15.0742 13.0359 15.9411 12.3954C16.1402 12.5238 16.3757 12.5989 16.6297 12.5989H16.6936C17.4016 12.5989 17.9741 12.0258 17.9741 11.317V8.7583C17.9741 8.24863 17.6753 7.80888 17.2442 7.60457C17.0563 3.49577 13.655 0.208832 9.49999 0.208832C5.34503 0.208832 1.9431 3.49577 1.756 7.60457C1.32417 7.80915 1.02563 8.24863 1.02563 8.7583V11.317C1.02563 12.0258 1.59868 12.5989 2.30501 12.5989H2.36974C3.07662 12.5989 3.64994 12.0258 3.64994 11.317V8.7583C3.64994 8.256 3.35959 7.82281 2.9376 7.61331C3.12032 4.15129 5.99318 1.39179 9.49999 1.39179C13.0054 1.39179 15.8797 4.15129 16.0616 7.61331C15.6401 7.82308 15.35 8.256 15.35 8.7583V11.317C15.35 11.4869 15.3831 11.6451 15.4413 11.7929C14.6951 12.3268 13.6088 12.7073 12.386 12.8122Z" fill="#21212C"/>
</svg>
