<svg width="25" height="25" viewBox="0 0 25 25" fill="none" xmlns="http://www.w3.org/2000/svg">
<path d="M0.515869 4.57012C1.75869 4.98975 2.74868 5.979 3.16929 7.22129C3.2605 7.52183 3.53984 7.74053 3.87021 7.74053C4.19927 7.74053 4.47764 7.52344 4.57007 7.22466C4.9897 5.98188 5.97891 4.99194 7.22119 4.57124C7.52178 4.48003 7.74048 4.20068 7.74048 3.87031C7.74048 3.54126 7.52339 3.26289 7.22461 3.17046C5.98184 2.75083 4.99189 1.76162 4.57119 0.519336C4.47998 0.218701 4.20063 0 3.87026 0C3.54121 0 3.26284 0.21709 3.17046 0.515869C2.75088 1.75859 1.76162 2.74858 0.519287 3.16929C0.218701 3.2605 0 3.53984 0 3.87026C0 4.19932 0.217139 4.47769 0.515869 4.57012Z" fill="#DD6275"/>
<path d="M24.4841 20.4299C23.2413 20.0102 22.2513 19.021 21.8307 17.7787C21.7395 17.4782 21.4602 17.2595 21.1298 17.2595C20.8007 17.2595 20.5224 17.4766 20.4299 17.7753C20.0103 19.0181 19.0211 20.008 17.7788 20.4287C17.4782 20.52 17.2595 20.7993 17.2595 21.1297C17.2595 21.4587 17.4766 21.7371 17.7754 21.8295C19.0182 22.2492 20.0081 23.2384 20.4288 24.4807C20.52 24.7812 20.7994 24.9999 21.1297 24.9999C21.4588 24.9999 21.7372 24.7828 21.8295 24.4841C22.2491 23.2413 23.2384 22.2514 24.4807 21.8307C24.7813 21.7394 25 21.4601 25 21.1297C25 20.8007 24.7829 20.5223 24.4841 20.4299Z" fill="#DD6275"/>
<path d="M15.0853 16.5123C15.0853 16.5123 14.5925 16.3479 13.908 16.1199C11.5468 15.3329 9.66714 13.4533 8.88013 11.0922C8.65215 10.4075 8.4877 9.9147 8.4877 9.9147C8.38799 9.61572 8.10811 9.41406 7.79292 9.41406C7.47773 9.41406 7.1979 9.61577 7.09814 9.91475C7.09814 9.91475 6.93379 10.4076 6.70586 11.092C5.9188 13.4532 4.03921 15.3329 1.67813 16.1199C0.993457 16.3479 0.500635 16.5123 0.500635 16.5123C0.20166 16.612 0 16.8919 0 17.2071C0 17.5223 0.201709 17.8021 0.500684 17.9019C0.500684 17.9019 0.993506 18.0662 1.67793 18.2941C4.03916 19.0812 5.9188 20.9608 6.70581 23.3218C6.93379 24.0065 7.09814 24.4993 7.09814 24.4993C7.1979 24.7983 7.47769 25 7.79292 25H7.79297C8.10815 25 8.38804 24.7983 8.48774 24.4994C8.48774 24.4994 8.6522 24.0065 8.88013 23.322C9.66719 20.9608 11.5468 19.0812 13.9078 18.2942C14.5925 18.0662 15.0853 17.9019 15.0853 17.9019C15.3843 17.8021 15.586 17.5223 15.586 17.2071C15.586 16.8918 15.3843 16.612 15.0853 16.5123Z" fill="#DD6275"/>
<path d="M18.7762 12.4475C19.1055 12.4475 19.384 12.2301 19.4763 11.931C20.2642 9.5834 22.1328 7.71406 24.48 6.925C24.7809 6.83403 25 6.55449 25 6.22383C25 5.89453 24.7826 5.61602 24.4835 5.52378C22.1359 4.73579 20.2665 2.86719 19.4774 0.52002C19.3864 0.219043 19.1069 0 18.7762 0C18.4469 0 18.1684 0.217432 18.0762 0.516504C17.2882 2.86411 15.4196 4.7335 13.0724 5.52256C12.7715 5.61353 12.5524 5.89307 12.5524 6.22373C12.5524 6.55303 12.7699 6.83154 13.0689 6.92378C15.4164 7.71172 17.2857 9.58018 18.0748 11.9271C18.1658 12.2283 18.4453 12.4475 18.7762 12.4475Z" fill="#DD6275"/>
</svg>
