<svg width="23" height="25" viewBox="0 0 23 25" fill="none" xmlns="http://www.w3.org/2000/svg">
<path d="M21.4182 1.81885H15.6961L15.2479 0.927149C15.0542 0.538331 14.6571 0.292628 14.2227 0.292969H8.77251C8.33892 0.291309 7.94253 0.537647 7.7521 0.927149L7.30386 1.81885H1.58179C1.16045 1.81885 0.818848 2.16045 0.818848 2.58179V4.10767C0.818848 4.529 1.16045 4.87061 1.58179 4.87061H21.4182C21.8396 4.87061 22.1812 4.529 22.1812 4.10767V2.58179C22.1812 2.16045 21.8396 1.81885 21.4182 1.81885Z" fill="#21212C"/>
<path d="M3.35562 22.5613C3.43115 23.7673 4.43125 24.7069 5.63965 24.707H17.3604C18.5687 24.7069 19.5689 23.7673 19.6444 22.5613L20.6553 6.39648H2.34473L3.35562 22.5613Z" fill="#21212C"/>
</svg>
