<svg width="25" height="21" viewBox="0 0 25 21" fill="none" xmlns="http://www.w3.org/2000/svg">
<path d="M23.1977 2.81359C22.199 2.81359 21.3901 3.69435 21.3901 4.77783C21.3901 5.48265 21.7313 6.09625 22.2451 6.44493C21.1594 8.07447 19.6275 9.96686 18.0484 10.5151C15.9704 11.237 14.033 6.80002 13.0793 4.16314C13.7862 3.89707 14.3012 3.17082 14.3012 2.30939C14.3012 1.22592 13.4934 0.346191 12.4979 0.346191C11.5044 0.346191 10.6956 1.22587 10.6956 2.30939C10.6956 3.17082 11.2094 3.89602 11.9175 4.16314C10.9659 6.80002 9.03064 11.237 6.94947 10.5151C5.37249 9.96686 3.83734 8.07447 2.75386 6.44493C3.26556 6.0963 3.60777 5.48374 3.60777 4.77783C3.60777 3.69435 2.79782 2.81359 1.80227 2.81359C0.808855 2.81359 0 3.69435 0 4.77783C0 5.86455 0.808855 6.74422 1.80227 6.74422C1.82266 6.74422 1.83658 6.73885 1.85593 6.73671L4.29115 18.0491H20.7079L23.1441 6.73671C23.1613 6.7378 23.1784 6.74422 23.1988 6.74422C24.1911 6.74422 25 5.86455 25 4.77783C24.9989 3.69435 24.1901 2.81359 23.1977 2.81359Z" fill="#F5F5F5"/>
<path d="M20.6241 18.4473H4.37372V20.654H20.6241V18.4473Z" fill="#F5F5F5"/>
</svg>
